<svg width="151" height="28" viewBox="0 0 151 28" fill="none" xmlns="http://www.w3.org/2000/svg">
<path d="M20.2967 20.9661C20.2967 19.8431 21.7157 18.453 24.6795 18.453C24.8567 18.453 25.0339 18.453 25.2085 18.4703C24.981 20.6298 23.2763 22.1076 21.6099 22.1076C20.8111 22.1076 20.2967 21.7328 20.2967 20.9661ZM14.5477 9.16377H14.5834L13.6576 17.6862C12.6579 17.386 11.6378 17.1596 10.6053 17.0085L14.5477 9.16377ZM8.12553 16.8304C5.92619 16.8304 3.61972 17.3832 2.43078 18.7015C1.76661 17.4394 1.43087 16.0292 1.45477 14.6018C1.45477 10.8037 3.92126 7.27403 8.65849 5.03345L8.05542 3.74969C2.5022 6.27733 0 10.4475 0 14.6018C0 16.5633 0.461558 18.4557 1.68489 20.2524C1.64948 20.4529 1.63177 20.6561 1.63198 20.8598C1.63198 22.3747 2.57229 23.4618 4.52433 23.4618C6.56497 23.4618 8.30274 22.0531 9.35016 19.273H7.824C7.06088 21.1268 5.81907 22.0916 4.52433 22.0916C3.5126 22.0916 3.06956 21.6279 3.06956 20.8624C3.06956 19.5427 4.66583 18.2045 8.14402 18.2045C9.96873 18.2106 11.7816 18.4993 13.5188 19.0603L13.2714 21.3953H14.6905L16.021 8.82625C16.8376 8.65237 17.6699 8.5633 18.5046 8.56044C21.6271 8.56044 22.4788 9.66613 22.4788 10.8608C22.4788 12.4476 21.184 13.5519 18.0788 13.9094L18.5403 9.61298L17.1213 9.66613L15.8794 21.3966H17.2985L17.9188 15.4603C18.9764 15.173 20.0649 15.0163 21.1602 14.9938C23.2538 14.9938 24.6742 15.8496 25.1 17.1201C24.9585 17.1058 24.8164 17.1001 24.6742 17.1028C20.6458 17.1028 18.8551 19.1707 18.8551 20.9899C18.8551 22.594 20.0453 23.4857 21.5874 23.4857C23.8357 23.4857 26.2717 21.6664 26.613 18.6895C27.6399 18.9302 28.6222 19.3341 29.5225 19.8856C27.0917 23.5043 22.1772 25.8752 16.2868 25.8752C13.3944 25.8752 9.77602 25.2519 7.38097 23.5933L6.63506 24.7894C8.99574 26.501 12.7742 27.3037 16.2894 27.3037C25.8525 27.3037 32.5947 21.6332 32.5947 14.627C32.5947 7.26473 25.2666 1.95164 16.3079 1.95164C15.7577 1.95164 15.3676 1.96892 14.8347 2.0048L14.9761 3.41347C15.402 3.39619 15.8636 3.37759 16.2894 3.37759C24.2906 3.37759 31.1399 8.22684 31.1399 14.627C31.1433 16.0353 30.8266 17.4256 30.2142 18.6922C29.3096 18.1035 27.9963 17.5693 26.5945 17.3021C26.293 15.5905 24.8924 14.1287 22.1772 13.847C22.7095 13.552 23.1534 13.1193 23.4629 12.5937C23.7725 12.0682 23.9364 11.4689 23.9376 10.8582C23.9376 8.66541 22.3942 7.18499 18.5086 7.18499C17.7301 7.18692 16.9529 7.2527 16.1849 7.38164L16.3397 5.87865L14.9034 5.48661L13.6616 7.95178C11.6567 8.53649 9.70464 9.39633 8.55139 10.0555L9.19018 11.2861C10.3554 10.685 11.5584 10.1607 12.7914 9.71662L9.20867 16.8663C8.8357 16.8477 8.47995 16.8304 8.12553 16.8304ZM13.6801 4.08326C13.6801 2.53239 11.9238 1.14099 9.97704 0.695801C9.78174 1.49584 9.67351 2.31484 9.65436 3.13838C9.65436 5.31385 10.7719 5.95439 11.8193 5.95439C12.9342 5.95439 13.6788 5.2062 13.6788 4.08326H13.6801Z" fill="#E9E8E9"/>
<path d="M43.4781 10.9915C42.1677 10.9915 41.4189 11.6493 41.2693 12.6268H39.3962C39.6964 10.4471 41.1564 9.29994 43.4781 9.29994C46.0064 9.29994 47.3727 10.5778 47.3727 13.1884V18.8851H45.5007V16.632C45.0327 18.0037 44.0408 19.0752 42.1117 19.0752C40.3516 19.0752 39.2467 18.1355 39.2467 16.4429C39.2467 14.2999 41.2134 13.1539 45.5007 13.1539V13.0026C45.5007 11.6493 44.7519 10.9915 43.4781 10.9915ZM42.5421 17.4583C44.4711 17.4583 45.5007 16.1243 45.5007 14.5073C42.4109 14.5073 41.2134 15.2213 41.2134 16.3435C41.2134 17.064 41.719 17.4583 42.5421 17.4583ZM48.9833 15.8045H50.9306C51.1555 16.7766 51.7913 17.3837 53.2157 17.3837C54.9005 17.3837 55.3309 16.7821 55.3309 16.1048C55.3309 15.4654 54.8446 14.9771 53.5525 14.9771H51.9796V13.3796H53.2706C54.5993 13.3796 55.0307 12.9281 55.0307 12.2509C55.0307 11.5553 54.4497 10.9915 53.1953 10.9915C51.7913 10.9915 51.2857 11.7065 51.1167 12.4767H49.1694C49.3577 10.541 50.8563 9.29994 53.2308 9.29994C55.8526 9.29994 56.9963 10.5216 56.9963 11.9506C56.9963 12.9087 56.4164 13.7177 55.3492 14.0029C56.5466 14.2664 57.2965 15.1122 57.2965 16.1631C57.2965 17.6862 56.098 19.0795 53.2147 19.0795C50.482 19.0752 49.1705 17.7402 48.9833 15.8045ZM59.6193 16.9506C59.0006 15.9925 58.7951 14.7136 58.7951 13.0966C58.7951 8.5482 60.4434 6.59313 64.3746 6.12327C65.6484 5.97205 66.3219 5.82191 66.4532 5.35205H68.2134C67.9141 7.13752 66.5997 7.53284 64.6748 7.77696C61.4913 8.19065 60.6671 9.3745 60.5929 12.1764C61.2105 10.7096 62.6522 9.69207 64.4123 9.69207C67.0719 9.69207 68.7003 11.7983 68.7003 14.3733C68.7003 16.9862 66.7154 19.073 63.7388 19.073C61.8281 19.0752 60.3498 18.116 59.6193 16.9506ZM66.734 14.3755C66.734 12.6473 65.4989 11.3868 63.7388 11.3868C61.9969 11.3868 60.7619 12.6462 60.7619 14.3755C60.7619 16.1426 61.998 17.3837 63.7398 17.3837C65.4956 17.3837 66.734 16.1459 66.734 14.3755ZM70.1219 22.6472V20.9546C72.0875 20.9546 72.462 20.5982 73.0614 18.925L69.2804 9.48792H71.2846L74.0745 16.5002L76.8264 9.48792H78.6424L74.6738 19.3755C73.6627 21.9138 72.9323 22.6472 70.1219 22.6472ZM79.748 9.48792H81.6205V13.7177L85.7221 9.48792H87.9691L83.6241 13.9618L88.323 18.8872H85.7959L81.6205 14.4695V18.8872H79.748V9.48792ZM92.9681 10.9915C91.6563 10.9915 90.9073 11.6493 90.7583 12.6268H88.8858C89.1851 10.4471 90.6459 9.29994 92.9681 9.29994C95.4952 9.29994 96.8622 10.5778 96.8622 13.1884V18.8851H94.9896V16.632C94.5213 18.0037 93.5295 19.0752 91.6005 19.0752C89.8403 19.0752 88.7355 18.1355 88.7355 16.4429C88.7355 14.2999 90.7018 13.1539 94.9896 13.1539V13.0026C94.9896 11.6493 94.2406 10.9915 92.9681 10.9915ZM92.0308 17.4583C93.9599 17.4583 94.9896 16.1243 94.9896 14.5073C91.9005 14.5073 90.7018 15.2213 90.7018 16.3435C90.7018 17.064 91.2087 17.4583 92.0308 17.4583ZM104.108 9.48792H108.34C110.418 9.48792 111.561 10.3714 111.561 11.9312C111.561 12.9033 110.962 13.7361 109.763 14.0558C111.131 14.2815 111.973 14.9955 111.973 16.2539C111.973 17.5328 111.149 18.8862 108.584 18.8862H104.108V9.48792ZM109.632 12.2509C109.632 11.5931 109.22 11.0854 108.246 11.0854H105.948V13.398H108.25C109.22 13.398 109.632 12.8903 109.632 12.2509ZM105.948 14.9016V17.2897H108.475C109.599 17.2897 110.01 16.7496 110.01 16.067C110.01 15.4654 109.599 14.9016 108.382 14.9016H105.948ZM113.811 9.48792H115.685V13.7177L119.785 9.48792H122.033L117.688 13.9618L122.389 18.8872H119.86L115.685 14.4695V18.8872H113.811V9.48792ZM123.211 22.6472V20.9546C125.178 20.9546 125.553 20.5982 126.152 18.925L122.369 9.48792H124.372L127.163 16.5002L129.915 9.48792H131.731L127.763 19.3755C126.747 21.9138 126.016 22.6472 123.207 22.6472H123.211ZM139.672 15.4103H141.544C141.095 17.7984 139.465 19.0763 137.088 19.0763C134.183 19.0763 132.219 16.916 132.219 14.1887C132.219 11.4819 134.185 9.301 137.05 9.301C139.525 9.301 141.114 10.6728 141.469 12.873H139.597C139.241 11.6698 138.436 10.9925 137.05 10.9925C135.329 10.9925 134.185 12.2714 134.185 14.1887C134.185 16.1253 135.369 17.3848 137.05 17.3848C138.43 17.3837 139.329 16.7259 139.667 15.4092L139.672 15.4103ZM147.105 10.9925C145.795 10.9925 145.046 11.6503 144.895 12.6279H143.024C143.323 10.4481 144.784 9.301 147.105 9.301C149.634 9.301 151 10.5788 151 13.1895V18.8862H149.128V16.632C148.66 18.0037 147.667 19.0752 145.739 19.0752C143.979 19.0752 142.874 18.1355 142.874 16.4429C142.874 14.2999 144.84 13.1539 149.128 13.1539V13.0026C149.123 11.6493 148.374 10.9915 147.1 10.9915L147.105 10.9925ZM146.169 17.4593C148.098 17.4593 149.128 16.1253 149.128 14.5084C146.038 14.5084 144.84 15.2223 144.84 16.3446C144.834 17.064 145.34 17.4583 146.164 17.4583L146.169 17.4593Z" fill="#E9E8E9"/>
</svg>
