<svg width="131" height="55" viewBox="0 0 131 55" fill="none" xmlns="http://www.w3.org/2000/svg">
<path d="M1.75017 52.8043V1.75017H56.0053V52.8043H1.75017Z" stroke="#FFCB25" stroke-width="3.50033"/>
<path d="M48.8428 26.6242L48.0027 23.9172H41.479L40.6389 26.6242H35.209L41.6759 7.85254H47.7796L54.2464 26.6242H48.8428ZM42.7697 19.7843H46.7163L44.7299 13.403L42.7697 19.7843Z" fill="black"/>
<path d="M56.3468 23.9337C54.496 22.1359 53.5859 19.9 53.5859 17.2301C53.5859 14.5603 54.496 12.3244 56.3468 10.5513C58.1976 8.75351 60.556 7.85254 63.3694 7.85254C65.0583 7.85254 66.6378 8.2369 68.0861 9.00975C69.5343 9.77848 70.6588 10.8076 71.4901 12.1177L67.3335 14.4032C66.6072 13.1427 65.1064 12.3491 63.365 12.3491C61.8642 12.3491 60.6566 12.812 59.7203 13.7089C58.8102 14.6057 58.3551 15.7629 58.3551 17.226C58.3551 18.689 58.8102 19.871 59.7203 20.772C60.6566 21.6689 61.8642 22.107 63.365 22.107C65.1064 22.107 66.6072 21.3382 67.3335 20.0281L71.4901 22.3384C69.8537 24.9835 66.7997 26.5994 63.3694 26.5994C60.556 26.5994 58.1933 25.7026 56.3468 23.9296V23.9337Z" fill="black"/>
<path d="M89.2763 26.6242H83.6801L78.0533 18.2303V26.6242H73.0435V7.85254H78.0533V15.7381L83.6757 7.85254H89.2719L82.7831 16.9697L89.2719 26.6242H89.2763Z" fill="black"/>
<path d="M34.964 21.1275C34.964 22.7889 34.3777 24.1321 33.1744 25.124C31.9712 26.1159 30.3742 26.6242 28.3877 26.6242H20.127V7.85254H27.8539C31.7743 7.85254 34.3208 9.89007 34.3208 13.1881C34.3208 14.771 33.7039 16.0026 32.5006 16.916C34.1502 17.8542 34.964 19.2511 34.964 21.1275ZM25.1368 12.1425V15.0934H27.7096C28.6065 15.0934 29.3066 14.5561 29.3066 13.618C29.3066 12.7335 28.6328 12.1425 27.7096 12.1425H25.1368ZM28.2434 22.3343C29.2497 22.3343 29.9498 21.6895 29.9498 20.7514C29.9498 19.8132 29.2497 19.1685 28.2434 19.1685H25.1368V22.3343H28.2434Z" fill="black"/>
<path d="M39.5101 36.3572V38.184C39.5101 40.8332 38.6525 42.9699 36.9067 44.6148C35.1871 46.2349 32.9601 47.0573 30.1948 47.0573C27.2676 47.0573 24.8524 46.1563 22.9447 44.3585C21.0633 42.5566 20.127 40.3455 20.127 37.6963C20.127 35.0471 21.0677 32.836 22.9447 31.0092C24.8218 29.1825 27.1582 28.2815 29.9235 28.2815C31.6693 28.2815 33.2795 28.6659 34.7277 29.4139C36.2022 30.1578 37.3311 31.1621 38.1624 32.4227L34.0802 34.6586C33.3276 33.5262 31.7962 32.7822 29.9716 32.7822C28.4971 32.7822 27.2589 33.2451 26.3182 34.1709C25.3775 35.0967 24.8962 36.2787 24.8962 37.7211C24.8962 39.1635 25.3512 40.2917 26.2919 41.2464C27.2326 42.197 28.5715 42.6847 30.2648 42.6847C32.4394 42.6847 33.892 41.887 34.5877 40.3165H30.0241V36.3572H39.5013H39.5101Z" fill="black"/>
<path d="M51.4988 47.07L48.086 41.0112H46.2965V47.07H41.2866V28.2983H49.123C51.1094 28.2983 52.7896 28.9141 54.1328 30.1499C55.5024 31.3567 56.1762 32.9107 56.1762 34.7911C56.1762 37.0436 54.8898 39.0274 52.8465 40.1267L56.8762 47.0742H51.5032L51.4988 47.07ZM46.2921 32.7247V36.9361H49.0617C50.2912 36.9651 51.1619 36.1054 51.1619 34.8449C51.1619 33.5843 50.2956 32.7247 49.0617 32.7247H46.2921Z" fill="black"/>
<path d="M67.5873 47.0659C64.8221 47.0659 62.49 46.1649 60.5823 44.3671C58.6746 42.5404 57.7383 40.3293 57.7383 37.6842C57.7383 35.0391 58.679 32.8239 60.5823 31.0261C62.4856 29.1993 64.8221 28.3025 67.5873 28.3025C70.3526 28.3025 72.6585 29.2035 74.5661 31.0261C76.4738 32.8239 77.4364 35.035 77.4364 37.6842C77.4364 40.3334 76.4694 42.5445 74.5661 44.3671C72.6628 46.1649 70.3526 47.0659 67.5873 47.0659ZM67.5873 42.5652C69.0356 42.5652 70.2432 42.1023 71.2102 41.2013C72.1772 40.2755 72.6585 39.0935 72.6585 37.6801C72.6585 36.2666 72.1772 35.0846 71.2102 34.1836C70.2432 33.2579 69.0356 32.795 67.5873 32.795C66.1391 32.795 64.9315 33.2579 63.9645 34.1836C62.9975 35.0846 62.5162 36.2666 62.5162 37.6801C62.5162 39.0935 62.9975 40.2755 63.9645 41.2013C64.9315 42.1023 66.1391 42.5652 67.5873 42.5652Z" fill="black"/>
<path d="M78.9985 28.2983H83.9034V40.1929C83.9034 41.7427 84.8091 42.5032 86.5899 42.5032C88.3707 42.5032 89.2764 41.7427 89.2764 40.1929V28.2983H94.1812V40.6392C94.1812 42.5817 93.468 44.1315 92.046 45.3135C90.6503 46.4956 88.8126 47.0742 86.5943 47.0742C84.3759 47.0742 82.5382 46.4956 81.1119 45.3135C79.7117 44.1315 79.0029 42.5817 79.0029 40.6392V28.2983H78.9985Z" fill="black"/>
<path d="M106.756 28.2983H111.74V47.07H107.876L100.963 37.6305V47.07H95.9531V28.2983H99.8429L106.756 37.7379V28.2983Z" fill="black"/>
<path d="M121.484 28.2983C124.201 28.2983 126.437 29.2117 128.257 31.0054C130.077 32.8032 131 35.0267 131 37.6842C131 40.3416 130.077 42.59 128.257 44.3878C126.437 46.1856 124.196 47.07 121.484 47.07H113.507V28.2983H121.484ZM121.484 42.4288C122.858 42.4288 123.947 41.9989 124.813 41.1434C125.68 40.259 126.1 39.1059 126.1 37.6842C126.1 36.2625 125.68 35.1094 124.813 34.2497C123.947 33.3653 122.853 32.9355 121.484 32.9355H118.657V42.4288H121.484Z" fill="black"/>
</svg>
