<svg width="144" height="17" viewBox="0 0 144 17" fill="none" xmlns="http://www.w3.org/2000/svg">
<path fill-rule="evenodd" clip-rule="evenodd" d="M51.4463 6.81467V3.81332H49.0148V0H45.9688V13.013C45.9702 13.9706 46.3485 14.8886 47.0207 15.5657C47.6929 16.2429 48.6042 16.6239 49.5549 16.6253H51.4463V13.5891H50.0949C49.8082 13.5884 49.5335 13.4732 49.331 13.2687C49.1285 13.0643 49.0148 12.7873 49.0148 12.4985V6.81467H51.4463ZM14.5322 4.80427L14.6945 4.59258C15.0829 4.08878 15.6575 3.83688 16.4609 3.8208H17.4452V6.8275H15.6921C15.2212 6.8275 14.8834 6.92665 14.6892 7.13032C14.4811 7.3846 14.3791 7.71025 14.4045 8.03876V16.6328H11.3824V3.8208H14.0427L14.5322 4.80427ZM33.4516 5.71279C34.642 4.51365 36.256 3.83904 37.9395 3.83691C39.5609 3.83844 41.1203 4.46469 42.298 5.58727C43.4758 6.70985 44.1826 8.24372 44.2736 9.87444V16.6328H37.9395C36.2555 16.6307 34.6412 15.9557 33.4507 14.756C32.2602 13.5563 31.5908 11.9298 31.5894 10.2335C31.5915 8.5377 32.2612 6.91193 33.4516 5.71279ZM41.3978 13.7172V10.2335C41.3978 9.3096 41.0335 8.4235 40.3849 7.77018C39.7363 7.11686 38.8567 6.74983 37.9395 6.74983C37.0222 6.74983 36.1426 7.11686 35.494 7.77018C34.8455 8.4235 34.4811 9.3096 34.4811 10.2335C34.4811 11.1575 34.8455 12.0436 35.494 12.6969C36.1426 13.3502 37.0222 13.7172 37.9395 13.7172H41.3978ZM2.66969 5.67037C2.04753 6.24884 1.55525 6.95455 1.22583 7.74022C0.896416 8.5259 0.737465 9.3734 0.759602 10.226C0.739263 11.0843 0.898862 11.9372 1.22799 12.7291C1.55713 13.521 2.04839 14.2341 2.66969 14.8218C3.94396 16.017 5.76093 16.6226 8.0674 16.6226H9.64495V13.6266H8.0674C5.39115 13.6266 3.85883 12.3913 3.85883 10.2367C3.85883 8.08217 5.39115 6.84679 8.0674 6.84679H9.64495V3.84277H8.0674C5.74763 3.84277 3.93066 4.45911 2.66969 5.67037ZM66.3894 3.84277L63.2795 12.3993L60.1696 3.84277H56.956L61.6035 16.6306H64.9555L69.6057 3.84277H66.3894ZM141.75 12.0879C141.152 12.0879 140.578 12.3275 140.155 12.7539C139.732 13.1803 139.494 13.7587 139.494 14.3617C139.494 14.9648 139.732 15.5431 140.155 15.9695C140.578 16.3959 141.152 16.6355 141.75 16.6355H144.001V14.2223C143.966 13.6444 143.714 13.1017 143.296 12.705C142.877 12.3083 142.325 12.0875 141.75 12.0879ZM53.1248 3.86523H56.1292V16.6317H53.1248V3.86523ZM136.191 5.29462C135.192 4.34944 133.87 3.82916 132.499 3.84219C131.124 3.82542 129.796 4.34713 128.796 5.2973L128.748 5.34554L128.697 5.29462C127.699 4.34801 126.376 3.82749 125.005 3.84219C124.238 3.83856 123.48 4.00028 122.781 4.3165V3.86362H119.777V16.6327H122.781V9.56887C122.813 7.75198 123.595 6.74974 125.005 6.74974C126.415 6.74974 127.256 7.80825 127.264 9.65194V16.6327H130.262V9.64657C130.262 7.77073 131.06 6.74706 132.491 6.74706C133.922 6.74706 134.75 7.81897 134.75 9.6707V16.6381H137.748V9.6707C137.756 7.72786 137.229 6.25398 136.191 5.29462ZM91.1352 3.81332V6.81467H88.7037V12.4985C88.7044 12.7875 88.8186 13.0645 89.0216 13.2689C89.2244 13.4733 89.4994 13.5884 89.7864 13.5891H91.1352V16.6253H89.2437C88.2933 16.6239 87.3822 16.2428 86.7104 15.5656C86.0387 14.8883 85.661 13.9704 85.6603 13.013V0H88.7037V3.81332H91.1352ZM77.8549 12.9808C77.3245 13.4022 76.682 13.6558 76.0086 13.7097H75.724C75.1137 13.7076 74.5146 13.5438 73.987 13.2348C73.4593 12.9258 73.0216 12.4824 72.7179 11.9491H81.8373L81.8666 11.8339C81.9922 11.338 82.0583 10.8288 82.0635 10.3171V10.2367V9.56143L82.0422 9.58019C81.9583 8.76955 81.7208 7.98264 81.3425 7.26218L81.3292 7.23539C81.3106 7.19787 81.2893 7.16036 81.268 7.12553L81.2308 7.0612C81.2115 7.02255 81.1902 6.98499 81.1669 6.94865L81.1297 6.88702C80.5665 5.95481 79.774 5.1848 78.8289 4.65149C77.8837 4.11819 76.818 3.83964 75.7346 3.8428H75.7343C75.5961 3.8428 75.4525 3.8428 75.2824 3.86154C73.6994 3.98523 72.219 4.69862 71.1299 5.86249C70.0409 7.02637 69.4215 8.55724 69.3925 10.1564V10.2314V10.912L69.4165 10.8933C69.4991 11.7059 69.7366 12.4948 70.1161 13.2167V13.2381L70.18 13.3506L70.2172 13.4176C70.2358 13.4552 70.2571 13.49 70.2784 13.5248L70.3156 13.5891C70.8796 14.5212 71.6727 15.291 72.6182 15.8243C73.5637 16.3575 74.6297 16.6362 75.7133 16.6334C75.849 16.6334 75.9927 16.6334 76.1656 16.6146C77.5554 16.5067 78.8714 15.9418 79.9113 15.0067L77.8682 12.9487L77.8549 12.9808ZM75.4367 6.76375H75.724C76.4291 6.76073 77.1181 6.97643 77.6973 7.38155C78.2766 7.78667 78.718 8.36157 78.9616 9.02816H72.4811C72.709 8.40668 73.1081 7.86355 73.6316 7.46248C74.1551 7.0614 74.7813 6.81902 75.4367 6.76375ZM24.4526 13.7097C25.126 13.6558 25.7685 13.4022 26.2989 12.9808L26.3255 12.9487L28.3686 15.0067C27.3287 15.9418 26.0126 16.5067 24.6229 16.6146C24.4366 16.6334 24.3063 16.6334 24.1706 16.6334C23.087 16.6362 22.021 16.3575 21.0755 15.8243C20.1299 15.291 19.3369 14.5212 18.7729 13.5891L18.7357 13.5248L18.7354 13.5244L18.7354 13.5244L18.7354 13.5243C18.7142 13.4897 18.693 13.455 18.6745 13.4176L18.6372 13.3506L18.5734 13.2381V13.2167C18.1939 12.4948 17.9563 11.7059 17.8737 10.8933L17.8498 10.912V10.2314V10.1564C17.8788 8.55724 18.4982 7.02637 19.5872 5.86249C20.6762 4.69862 22.1567 3.98523 23.7397 3.86154C23.9098 3.8428 24.0534 3.8428 24.1916 3.8428H24.1919C25.2752 3.83964 26.341 4.11819 27.2862 4.65149C28.2313 5.1848 29.0238 5.95481 29.587 6.88702L29.6242 6.94865C29.6482 6.98617 29.6694 7.02368 29.6907 7.0612L29.7253 7.12553C29.7466 7.16036 29.7679 7.19787 29.7865 7.23539V7.26218C30.1648 7.98264 30.4023 8.76955 30.4861 9.58019L30.5074 9.56143V10.2367V10.3171C30.5023 10.8288 30.4362 11.338 30.3106 11.8339L30.2813 11.9491H21.1619C21.4656 12.4824 21.9033 12.9258 22.4309 13.2348C22.9586 13.5438 23.5576 13.7076 24.168 13.7097H24.4526ZM24.168 6.76375H23.8807C23.2258 6.82091 22.6005 7.06403 22.0774 7.46485C21.5542 7.86567 21.1546 8.40775 20.9251 9.02816H27.4055C27.1619 8.36157 26.7205 7.78667 26.1413 7.38155C25.5621 6.97643 24.8731 6.76073 24.168 6.76375ZM111.729 3.83691C110.046 3.84117 108.435 4.51671 107.246 5.71562C106.057 6.91453 105.389 8.53909 105.386 10.2335C105.388 11.9298 106.057 13.5563 107.248 14.756C108.438 15.9557 110.053 16.6307 111.737 16.6328H118.071V9.87444C117.98 8.24233 117.272 6.7073 116.092 5.58451C114.913 4.46172 113.351 3.83639 111.729 3.83691ZM115.187 10.2335V13.7172H111.729C110.811 13.7172 109.932 13.3502 109.283 12.6969C108.635 12.0436 108.27 11.1575 108.27 10.2335C108.27 9.3096 108.635 8.4235 109.283 7.77018C109.932 7.11686 110.811 6.74983 111.729 6.74983C112.183 6.74948 112.633 6.83932 113.053 7.01424C113.473 7.18915 113.854 7.44571 114.176 7.76923C114.497 8.09276 114.752 8.47693 114.926 8.89976C115.1 9.3226 115.19 9.77582 115.19 10.2335H115.187ZM98.2431 13.7097C98.9156 13.6558 99.5572 13.4021 100.087 12.9808L100.124 12.9487L102.167 15.0067C101.127 15.9423 99.8112 16.5073 98.4213 16.6146C98.251 16.6334 98.1074 16.6334 97.969 16.6334C96.8857 16.6365 95.8199 16.358 94.8748 15.8246C93.9297 15.2913 93.1372 14.5213 92.574 13.5891L92.5341 13.5248L92.4729 13.4176L92.4357 13.3506C92.4131 13.3143 92.3927 13.2768 92.3745 13.2381L92.3612 13.2166C91.9817 12.4948 91.7441 11.7059 91.6615 10.8933L91.6376 10.912V10.2314V10.1563C91.6629 8.55655 92.2808 7.02404 93.3699 5.85946C94.4591 4.69489 95.941 3.9823 97.5248 3.86154C97.6976 3.84279 97.8411 3.84279 97.9767 3.84279H97.977C99.0606 3.83996 100.127 4.11861 101.072 4.65186C102.018 5.18512 102.811 5.95495 103.375 6.88701L103.412 6.94864L103.476 7.06119L103.51 7.12552C103.532 7.16036 103.553 7.19787 103.572 7.23538V7.26217C103.951 7.98215 104.189 8.76929 104.271 9.58018L104.295 9.56142V10.2367V10.3171C104.29 10.8288 104.224 11.338 104.098 11.8339L104.069 11.9491H94.9523C95.2552 12.4825 95.6923 12.9261 96.2196 13.2352C96.7469 13.5443 97.3457 13.7079 97.9557 13.7097H98.2431ZM97.9557 6.76374H97.6711C97.0158 6.82042 96.3899 7.0633 95.8662 7.46415C95.3426 7.865 94.9426 8.40736 94.7129 9.02815H101.193C100.95 8.36135 100.509 7.78624 99.9294 7.38106C99.3501 6.97589 98.661 6.76034 97.9557 6.76374Z" fill="#E9E8E9"/>
</svg>
