<svg width="172" height="28" viewBox="0 0 172 28" fill="none" xmlns="http://www.w3.org/2000/svg">
<path d="M22.8553 23.4419H22.3344V27.829H22.8553V23.4419Z" fill="#E9E8E9"/>
<path d="M27.533 27.8253V23.2681L30.7365 26.7693V23.4382H31.2361V27.9954L28.0291 24.5296V27.8253H27.533Z" fill="#E9E8E9"/>
<path d="M37.4978 25.3908C37.7525 25.4882 37.9748 25.6552 38.1392 25.8728C38.2854 26.0799 38.3623 26.328 38.3589 26.5815C38.3656 26.7642 38.3333 26.9461 38.2642 27.1154C38.1952 27.2846 38.091 27.4372 37.9585 27.5631C37.6993 27.7846 37.3747 27.9152 37.0343 27.935C36.694 27.9548 36.3565 27.8628 36.0733 27.673C35.8305 27.4849 35.6613 27.2179 35.5948 26.9182L36.0697 26.6843C36.1135 26.9106 36.2232 27.119 36.3851 27.2832C36.5348 27.4227 36.7333 27.4978 36.9379 27.4922C37.1691 27.5016 37.3949 27.4217 37.5687 27.269C37.65 27.194 37.7139 27.1022 37.7561 27C37.7984 26.8978 37.8178 26.7877 37.8132 26.6772C37.8154 26.4939 37.7554 26.3153 37.6431 26.1704C37.5052 26.0116 37.3298 25.8898 37.1328 25.8161L36.5977 25.5893C36.343 25.4935 36.119 25.3306 35.9492 25.1179C35.8041 24.9185 35.7282 24.6771 35.7331 24.4305C35.7302 24.2828 35.7605 24.1364 35.8219 24.0021C35.8832 23.8677 35.974 23.7489 36.0874 23.6544C36.3343 23.4457 36.6503 23.3369 36.9734 23.3496C37.2122 23.3425 37.4485 23.4 37.6573 23.5162C37.8526 23.634 38.0091 23.8065 38.1073 24.0123L37.675 24.2887C37.595 24.1392 37.4824 24.0096 37.3454 23.9095C37.2236 23.826 37.0786 23.7826 36.9308 23.7855C36.8431 23.7826 36.7557 23.7971 36.6736 23.8281C36.5915 23.8592 36.5163 23.9061 36.4524 23.9662C36.3391 24.0784 36.2716 24.2287 36.2631 24.3879C36.2546 24.5471 36.3056 24.7038 36.4064 24.8274C36.5302 24.9615 36.6829 25.0657 36.8529 25.1321L37.4978 25.3908Z" fill="#E9E8E9"/>
<path d="M43.1784 25.8587V27.8255H42.6716V23.4419H43.5895C43.7501 23.4419 43.8895 23.4419 44.0076 23.4419C44.1053 23.4472 44.2025 23.4603 44.2982 23.4809C44.3708 23.4975 44.4419 23.52 44.5108 23.5482C44.5744 23.5734 44.635 23.6055 44.6916 23.6439C44.8351 23.7492 44.9477 23.8912 45.0176 24.055C45.0566 24.1426 45.0863 24.234 45.1062 24.3278C45.1276 24.428 45.1383 24.5302 45.1381 24.6326C45.1414 24.8313 45.1015 25.0284 45.0211 25.2102C44.9498 25.3731 44.8375 25.5148 44.6951 25.6213C44.5754 25.7038 44.4405 25.7616 44.2982 25.7914C44.0644 25.8334 43.8269 25.8513 43.5895 25.8445H43.1784V25.8587ZM43.1784 25.3839H43.4406C43.7503 25.4121 44.0619 25.3583 44.3443 25.2279C44.4266 25.1637 44.4912 25.0796 44.5321 24.9835C44.573 24.8874 44.5889 24.7825 44.5782 24.6787C44.5893 24.5687 44.5736 24.4577 44.5322 24.3552C44.4908 24.2527 44.4251 24.1618 44.3407 24.0904C44.0632 23.9484 43.751 23.8881 43.4406 23.9168H43.1784V25.3839Z" fill="#E9E8E9"/>
<path d="M49.9293 23.4419H49.4083V27.829H49.9293V23.4419Z" fill="#E9E8E9"/>
<path d="M54.614 27.8258V23.4422H55.6452C55.8614 23.4346 56.0777 23.4513 56.2902 23.4918C56.4195 23.5195 56.5407 23.5765 56.6446 23.6584C56.778 23.7664 56.8816 23.9067 56.9458 24.0659C57.0209 24.2466 57.0583 24.4408 57.0556 24.6365C57.0662 24.7864 57.0448 24.937 56.9928 25.0781C56.9409 25.2192 56.8597 25.3477 56.7544 25.4551C56.5069 25.6578 56.1911 25.758 55.872 25.735H55.7799L57.449 27.8258H56.7899L55.1881 25.735H55.1137V27.8258H54.614ZM55.1243 23.8781V25.3452H55.5212C55.8034 25.3739 56.0879 25.3197 56.3398 25.1893C56.4146 25.1201 56.4721 25.0344 56.5078 24.939C56.5435 24.8437 56.5564 24.7412 56.5453 24.64C56.5578 24.5316 56.5451 24.4219 56.5083 24.3192C56.4714 24.2166 56.4113 24.1238 56.3327 24.0482C56.0861 23.9096 55.8028 23.8502 55.5212 23.8781H55.1243Z" fill="#E9E8E9"/>
<path d="M62.0311 23.4419H61.5101V27.829H62.0311V23.4419Z" fill="#E9E8E9"/>
<path d="M66.7087 27.8253V23.2681L69.9158 26.7693V23.4382H70.4155V27.9954L67.2084 24.5296V27.8253H66.7087Z" fill="#E9E8E9"/>
<path d="M77.4888 25.5606H79.2961V25.7059C79.3125 26.004 79.2692 26.3023 79.1688 26.5835C79.0684 26.8646 78.9129 27.1229 78.7114 27.3431C78.5004 27.5484 78.2491 27.7076 77.9734 27.8107C77.6977 27.9138 77.4036 27.9585 77.1097 27.942C76.9106 27.9435 76.712 27.9221 76.5179 27.8782C76.3386 27.8385 76.1656 27.7741 76.004 27.6869C75.6528 27.4995 75.3625 27.2154 75.1677 26.8683C74.9674 26.5039 74.866 26.0934 74.8736 25.6776C74.868 25.34 74.927 25.0044 75.0472 24.6889C75.1665 24.394 75.3478 24.1281 75.5788 23.9093C75.7772 23.723 76.0109 23.5783 76.2663 23.484C76.5447 23.3842 76.8387 23.335 77.1345 23.3387C77.5121 23.3289 77.8868 23.4065 78.2295 23.5655C78.5452 23.7279 78.8109 23.9728 78.9985 24.2743L78.5626 24.6286C78.4287 24.3691 78.2265 24.151 77.9779 23.9979C77.7269 23.8616 77.4448 23.7932 77.1593 23.7994C76.9277 23.7909 76.6971 23.8324 76.4831 23.9211C76.2691 24.0098 76.0766 24.1435 75.919 24.3132C75.5917 24.6847 75.4214 25.1688 75.4441 25.6634C75.4343 25.8997 75.4719 26.1356 75.5546 26.3571C75.6374 26.5786 75.7637 26.7814 75.9261 26.9533C76.0847 27.1191 76.2766 27.2496 76.489 27.3363C76.7015 27.423 76.9299 27.464 77.1593 27.4565C77.5623 27.4693 77.9546 27.3258 78.2543 27.0561C78.4003 26.9275 78.5205 26.7724 78.6087 26.5989C78.6979 26.417 78.744 26.2169 78.7433 26.0142H77.4924L77.4888 25.5606Z" fill="#E9E8E9"/>
<path d="M89.9486 23.4419H90.4766V26.8651C90.5003 27.1579 90.413 27.4488 90.2321 27.6802C90.1332 27.7746 90.0154 27.8471 89.8866 27.8929C89.7577 27.9387 89.6207 27.9568 89.4843 27.946C89.3168 27.9488 89.1508 27.9137 88.9988 27.8432C88.8401 27.7635 88.7001 27.6512 88.5878 27.5136L88.9421 27.1593C89.0275 27.253 89.1267 27.333 89.2363 27.3967C89.3249 27.447 89.4249 27.4738 89.5269 27.4746C89.5934 27.4795 89.66 27.4654 89.719 27.4341C89.7779 27.4027 89.8268 27.3554 89.86 27.2975C89.9449 27.0714 89.9788 26.8294 89.9592 26.5887L89.9486 23.4419Z" fill="#E9E8E9"/>
<path d="M95.1046 27.829V23.4419H97.4187V23.9168H95.6255V25.1748H97.4187V25.6603H95.6255V27.3435H97.4187V27.829H95.1046Z" fill="#E9E8E9"/>
<path d="M101.349 23.4418H101.912L103.025 26.6631L104.18 23.2646L105.349 26.6631L106.469 23.4418H107.033L105.332 27.9955L104.187 24.6042L103.046 27.992L101.349 23.4418Z" fill="#E9E8E9"/>
<path d="M111.136 27.829V23.4419H113.447V23.9168H111.657V25.1748H113.447V25.6603H111.657V27.3435H113.447V27.829H111.136Z" fill="#E9E8E9"/>
<path d="M117.947 27.829V23.4419H118.468V27.3294H120.123V27.829H117.947Z" fill="#E9E8E9"/>
<path d="M124.361 27.829V23.4419H124.882V27.3294H126.537V27.829H124.361Z" fill="#E9E8E9"/>
<path d="M130.776 27.829V23.4419H133.086V23.9168H131.297V25.1748H133.086V25.6603H131.297V27.3435H133.086V27.829H130.776Z" fill="#E9E8E9"/>
<path d="M137.587 27.8258V23.4422H138.6C138.817 23.4347 139.033 23.4513 139.245 23.4918C139.375 23.5195 139.496 23.5765 139.6 23.6584C139.733 23.7667 139.836 23.9069 139.901 24.0659C139.978 24.2461 140.018 24.4403 140.018 24.6364C140.028 24.7864 140.007 24.9369 139.955 25.078C139.903 25.2191 139.822 25.3476 139.717 25.455C139.469 25.6577 139.153 25.7579 138.834 25.735H138.742L140.415 27.8293H139.77L138.172 25.7385H138.097V27.8258H137.587ZM138.097 23.8781V25.3452H138.494C138.776 25.3738 139.061 25.3196 139.313 25.1892C139.387 25.1201 139.445 25.0344 139.481 24.939C139.516 24.8436 139.529 24.7412 139.518 24.64C139.531 24.5316 139.518 24.4218 139.481 24.3192C139.444 24.2165 139.384 24.1238 139.306 24.0482C139.059 23.9093 138.776 23.8499 138.494 23.8781H138.097Z" fill="#E9E8E9"/>
<path d="M145.45 27.8291V25.8163L143.965 23.442H144.564L145.712 25.3415L146.853 23.4385L147.452 23.442L145.971 25.8163V27.8291H145.45Z" fill="#E9E8E9"/>
<path d="M0.749512 16.7371V0.886034H4.47042C5.24979 0.859056 6.02971 0.920879 6.7951 1.07031C7.27362 1.1647 7.72295 1.37115 8.10628 1.67274C8.58864 2.06047 8.96327 2.56566 9.1942 3.13984C9.46754 3.7975 9.60264 4.50436 9.59109 5.21646C9.59109 6.51582 9.22963 7.50216 8.50672 8.17547C7.7838 8.84877 6.72068 9.18543 5.31737 9.18543H4.98071L11.0263 16.7371H8.64138L2.87574 9.1748H2.5887V16.7371H0.749512ZM2.5887 2.47716V7.79275H4.02745C5.50637 7.79275 6.4927 7.60375 6.98646 7.22575C7.48022 6.84775 7.7271 6.17799 7.7271 5.21646C7.7271 4.20059 7.47077 3.49185 6.95811 3.09023C6.44545 2.68861 5.46857 2.48425 4.02745 2.47716H2.5887Z" fill="#E9E8E9"/>
<path d="M28.8051 8.84547C28.8111 9.93912 28.6003 11.0231 28.185 12.0348C27.7668 13.0425 27.1455 13.9533 26.36 14.7103C24.7557 16.2781 22.6017 17.1558 20.3587 17.1558C18.1156 17.1558 15.9616 16.2781 14.3574 14.7103C13.5683 13.9491 12.9425 13.0352 12.5182 12.0242C11.6782 9.98092 11.6782 7.68876 12.5182 5.6455C12.9395 4.63465 13.563 3.72056 14.3503 2.95936C15.1472 2.18271 16.0903 1.57202 17.125 1.16269C19.2014 0.329234 21.5194 0.329234 23.5959 1.16269C24.6231 1.5726 25.559 2.18205 26.3493 2.95581C27.1366 3.71631 27.759 4.63064 28.1779 5.64195C28.5985 6.66225 28.8117 7.75608 28.8051 8.85965M20.3427 15.3836C21.1938 15.3902 22.0375 15.2251 22.8233 14.8981C24.4197 14.2216 25.6905 12.9508 26.367 11.3544C26.6995 10.5575 26.8683 9.70186 26.8632 8.83839C26.8679 7.96726 26.7005 7.10377 26.3706 6.29754C26.0457 5.5008 25.5636 4.77768 24.9531 4.17131C24.3533 3.56607 23.6405 3.08446 22.8552 2.75382C22.07 2.42328 21.2265 2.25338 20.3746 2.25415C19.5239 2.2519 18.6811 2.41685 17.894 2.73964C17.1057 3.06282 16.3927 3.54541 15.7997 4.15713C15.1948 4.76811 14.7135 5.49005 14.3822 6.28336C14.0371 7.09338 13.8598 7.965 13.8613 8.84547C13.8561 9.69609 14.0199 10.5393 14.3432 11.3261C14.674 12.1134 15.1555 12.8285 15.7607 13.431C16.3663 14.0496 17.0891 14.5411 17.8869 14.8769C18.6713 15.21 19.5153 15.38 20.3675 15.3766" fill="#E9E8E9"/>
<path d="M31.8883 16.7373V0.88623H35.1875C35.764 0.88623 36.2672 0.900405 36.6971 0.928755C37.0547 0.94766 37.4102 0.99506 37.7602 1.0705C38.2732 1.16026 38.7584 1.36768 39.1777 1.67648C39.6833 2.05291 40.0866 2.54998 40.3507 3.12232C40.6326 3.72678 40.7755 4.38672 40.7689 5.05365C40.7959 5.79813 40.5876 6.5322 40.1735 7.15153C39.7438 7.73691 39.1235 8.1542 38.4194 8.33159C38.8528 8.38625 39.2712 8.52581 39.6506 8.74228C40.03 8.95875 40.3631 9.24788 40.6307 9.59315C41.2013 10.3522 41.494 11.2842 41.4599 12.2332C41.4591 12.8563 41.3388 13.4734 41.1055 14.0512C40.8863 14.6108 40.5532 15.1188 40.1275 15.5431C39.6656 15.9859 39.0965 16.3009 38.4761 16.4573C37.3894 16.6844 36.2792 16.7784 35.1698 16.7373H31.8883ZM33.7275 2.51989V7.83547H35.1875C36.5223 7.83547 37.4673 7.64056 38.0225 7.25075C38.2982 7.05503 38.5122 6.78452 38.6391 6.47113C38.7858 6.09178 38.8557 5.68704 38.8446 5.28044C38.8446 4.26221 38.5918 3.55347 38.0863 3.15421C37.5807 2.75495 36.6144 2.54351 35.1875 2.51989H33.7275ZM33.7275 9.30257V15.093H35.1875C35.9195 15.1106 36.6518 15.0703 37.3775 14.9725C37.7528 14.9172 38.1105 14.7766 38.4229 14.5614C38.7584 14.3139 39.0214 13.9811 39.1848 13.5976C39.3798 13.1443 39.4772 12.6551 39.4704 12.1617C39.4637 11.6684 39.3531 11.182 39.1458 10.7342C38.9229 10.3096 38.5804 9.95974 38.1607 9.72781C37.8945 9.56777 37.6016 9.45731 37.296 9.40179C36.7802 9.32335 36.2584 9.29015 35.7368 9.30257H33.7275Z" fill="#E9E8E9"/>
<path d="M44.3408 16.7373V0.88623H52.6934V2.60493H46.2225V7.15153H52.6934V8.90213H46.2225V14.9832H52.6934V16.7373H44.3408Z" fill="#E9E8E9"/>
<path d="M55.8862 16.7371V0.886034H59.6071C60.3865 0.859056 61.1664 0.920879 61.9318 1.07031C62.4104 1.16444 62.8598 1.37092 63.243 1.67274C63.7254 2.06047 64.1 2.56566 64.3309 3.13984C64.6031 3.79772 64.737 4.5046 64.7243 5.21646C64.7243 6.51582 64.364 7.50216 63.6434 8.17547C62.9229 8.84877 61.8598 9.18543 60.4541 9.18543H60.1174L66.1666 16.7477H63.7816L57.9947 9.1748H57.7254V16.7371H55.8862ZM57.7254 2.47716V7.79275H59.1642C60.6431 7.79275 61.6294 7.60375 62.1232 7.22575C62.6169 6.84775 62.8638 6.18626 62.8638 5.24127C62.8638 4.2254 62.6075 3.51666 62.0948 3.11503C61.5822 2.71341 60.6053 2.50906 59.1642 2.50197L57.7254 2.47716Z" fill="#E9E8E9"/>
<path d="M70.5148 16.7373V2.6829H66.0355V0.88623H76.8758V2.6829H72.4178V16.7373H70.5148Z" fill="#E9E8E9"/>
<path d="M95.1719 8.84575C95.1766 9.93961 94.9646 11.0236 94.5482 12.0351C94.131 13.0424 93.511 13.9531 92.7267 14.7106C91.1225 16.2783 88.9685 17.1561 86.7254 17.1561C84.4824 17.1561 82.3284 16.2783 80.7241 14.7106C79.9349 13.9495 79.3091 13.0355 78.885 12.0245C78.0453 9.98112 78.0453 7.68911 78.885 5.64577C79.3063 4.63492 79.9297 3.72084 80.7171 2.95963C81.5139 2.18291 82.457 1.57221 83.4918 1.16296C85.5682 0.329142 87.8863 0.329142 89.9626 1.16296C90.99 1.5728 91.9258 2.18225 92.7161 2.95609C93.5035 3.71652 94.1259 4.63087 94.5447 5.64223C94.9649 6.66264 95.1781 7.75639 95.1719 8.85993M86.7095 15.3839C87.5606 15.3904 88.4043 15.2253 89.1901 14.8984C90.7865 14.2219 92.0572 12.9511 92.7338 11.3547C93.0676 10.5581 93.2376 9.70238 93.2335 8.83866C93.2385 7.96751 93.0711 7.10397 92.7409 6.29781C92.416 5.50108 91.9339 4.77795 91.3234 4.17158C90.7235 3.56648 90.0108 3.0849 89.2255 2.75409C88.4403 2.42356 87.5969 2.25366 86.7449 2.25443C85.8942 2.25227 85.0514 2.41722 84.2643 2.73992C83.476 3.0631 82.763 3.54568 82.17 4.15741C81.5653 4.7685 81.084 5.49041 80.7525 6.28364C80.4207 7.08449 80.2521 7.94347 80.2564 8.81031C80.2513 9.66092 80.4151 10.5041 80.7383 11.2909C81.0698 12.0779 81.5512 12.7928 82.1558 13.3959C82.7616 14.0141 83.4844 14.5056 84.282 14.8417C85.0665 15.1748 85.9105 15.3448 86.7626 15.3414" fill="#E9E8E9"/>
<path d="M104.79 16.7373V0.88623H108.089C108.665 0.88623 109.168 0.900405 109.598 0.928755C109.956 0.94766 110.311 0.99506 110.661 1.0705C111.174 1.16064 111.659 1.36802 112.079 1.67648C112.585 2.05291 112.988 2.54998 113.252 3.12232C113.534 3.72671 113.677 4.38669 113.67 5.05365C113.7 5.79698 113.496 6.53094 113.085 7.15153C112.652 7.74076 112.024 8.15853 111.314 8.33159C112.189 8.44237 112.984 8.89614 113.525 9.59315C114.095 10.3524 114.388 11.2842 114.354 12.2332C114.353 12.8563 114.233 13.4735 114 14.0512C113.781 14.611 113.448 15.1191 113.022 15.5431C112.56 15.9856 111.991 16.3006 111.37 16.4573C110.284 16.6845 109.173 16.7785 108.064 16.7373H104.79ZM106.629 2.51989V7.83547H108.089C109.424 7.83547 110.369 7.64056 110.924 7.25075C111.199 7.05432 111.413 6.78402 111.54 6.47113C111.687 6.09188 111.757 5.68707 111.746 5.28044C111.746 4.26221 111.493 3.55347 110.988 3.15421C110.482 2.75495 109.516 2.54351 108.089 2.51989H106.629ZM106.629 9.30257V15.093H108.089C108.821 15.1106 109.553 15.0703 110.279 14.9725C110.65 14.9157 111.004 14.7751 111.314 14.5614C111.649 14.314 111.912 13.9812 112.075 13.5976C112.271 13.1444 112.368 12.6551 112.361 12.1617C112.355 11.6683 112.244 11.1819 112.036 10.7342C111.813 10.3098 111.471 9.95991 111.051 9.72781C110.784 9.56758 110.49 9.45713 110.183 9.40179C109.667 9.32328 109.146 9.29008 108.624 9.30257H106.611H106.629Z" fill="#E9E8E9"/>
<path d="M117.242 16.7371V0.886034H120.963C121.742 0.859056 122.522 0.920879 123.288 1.07031C123.766 1.16431 124.216 1.37081 124.599 1.67274C125.082 2.06002 125.456 2.56535 125.687 3.13984C125.96 3.7975 126.095 4.50436 126.084 5.21646C126.084 6.51582 125.723 7.50216 125.003 8.17547C124.282 8.84877 123.219 9.18543 121.814 9.18543H121.477L127.526 16.7477H125.134L119.354 9.1748H119.081V16.7371H117.242ZM119.081 2.47716V7.79275H120.527C122.006 7.79275 122.992 7.60375 123.486 7.22575C123.98 6.84775 124.227 6.18626 124.227 5.24127C124.227 4.2254 123.971 3.51666 123.458 3.11503C122.945 2.71341 121.968 2.50079 120.527 2.47716H119.081Z" fill="#E9E8E9"/>
<path d="M134.11 0.255371L141.318 16.7372H139.274L137.218 11.8681H131.031L128.979 16.7408H126.927L134.11 0.255371ZM134.11 4.41924L131.591 10.2557H136.627L134.11 4.41924Z" fill="#E9E8E9"/>
<path d="M147.474 17.3397L140.776 0.88623H142.821L147.47 12.9951L152.105 0.88623H154.139L147.474 17.3397Z" fill="#E9E8E9"/>
<path d="M172 8.84575C172.006 9.93939 171.795 11.0234 171.38 12.0351C170.961 13.0428 170.34 13.9536 169.555 14.7106C167.95 16.2783 165.796 17.1561 163.553 17.1561C161.31 17.1561 159.156 16.2783 157.552 14.7106C156.763 13.9496 156.137 13.0356 155.713 12.0245C154.874 9.98105 154.874 7.68919 155.713 5.64577C156.134 4.63482 156.757 3.72071 157.545 2.95963C158.342 2.18321 159.285 1.57254 160.32 1.16296C162.396 0.329142 164.714 0.329142 166.79 1.16296C167.818 1.57296 168.754 2.1824 169.544 2.95609C170.331 3.71659 170.954 4.63092 171.372 5.64223C171.793 6.66264 172.006 7.75639 172 8.85993M163.537 15.3839C164.388 15.3904 165.232 15.2253 166.018 14.8984C167.614 14.2215 168.885 12.9509 169.562 11.3547C169.894 10.5578 170.063 9.70213 170.058 8.83866C170.063 7.96751 169.895 7.10397 169.565 6.29781C169.24 5.50099 168.758 4.77783 168.148 4.17158C167.547 3.56617 166.833 3.08458 166.046 2.75409C165.261 2.42356 164.418 2.25366 163.566 2.25443C162.715 2.25227 161.872 2.41722 161.085 2.73992C160.297 3.06319 159.584 3.54576 158.991 4.15741C158.386 4.76878 157.905 5.49062 157.573 6.28364C157.241 7.08438 157.072 7.94344 157.077 8.81031C157.072 9.66091 157.236 10.504 157.559 11.2909C157.891 12.0779 158.372 12.7928 158.977 13.3959C159.583 14.0139 160.305 14.5053 161.103 14.8417C161.887 15.1748 162.731 15.3448 163.583 15.3414" fill="#E9E8E9"/>
</svg>
