<svg width="122" height="24" viewBox="0 0 122 24" fill="none" xmlns="http://www.w3.org/2000/svg">
<path fill-rule="evenodd" clip-rule="evenodd" d="M23.601 10.6073C23.601 10.6073 24.1682 4.17799 24.2238 3.54645C24.3115 2.53484 23.4958 0.692871 21.531 0.692871H15.7273V0.701642H5.29538C3.33062 0.701642 2.37455 2.02903 2.25175 3.30378C2.18158 4.06104 0.839581 19.6066 0.751868 20.5072C0.746021 20.5802 0.740173 20.6533 0.740173 20.7264V20.8258C0.763563 22.1766 1.7401 23.5771 3.41833 23.5771H19.5575C21.6947 23.5771 22.5309 22.4456 22.7122 20.6972C22.8204 19.6505 23.3525 13.3206 23.3525 13.3206H13.5959L13.1749 18.212H10.7073L11.7744 6.06965H14.2391L13.8474 10.6132H23.601V10.6073Z" fill="#E9E8E9"/>
<path fill-rule="evenodd" clip-rule="evenodd" d="M38.6553 2.66056C38.3074 3.66341 35.4684 12.5516 35.4684 12.5516L36.7315 0.698725H26.9837L24.94 23.5771H32.2903C34.1352 23.5771 34.7638 22.5304 35.0737 21.6913C35.4363 20.6884 38.1437 13.2124 38.1437 13.2124L37.1525 23.5771H46.9091L48.9177 0.695801C48.9177 0.695801 41.9212 0.695801 41.2575 0.695801C39.5675 0.695801 38.9009 1.94424 38.6553 2.65764V2.66056Z" fill="#E9E8E9"/>
<path fill-rule="evenodd" clip-rule="evenodd" d="M88.0698 0.698242L87.1576 11.1302H84.6841L85.5992 0.698242H75.8427C75.8427 0.698242 74.9041 11.7383 74.8106 12.8114C74.6907 14.0832 75.4099 15.8901 77.5706 15.8901H86.7366L86.5378 18.2115H74.3311L73.8633 23.5766H93.277C94.5927 23.5766 95.8645 22.717 96.0341 20.8838C96.1481 19.7056 97.8234 0.698242 97.8234 0.698242H88.0698Z" fill="#E9E8E9"/>
<path fill-rule="evenodd" clip-rule="evenodd" d="M109.074 11.7413L109.568 6.06626H112.012L111.515 11.7413H109.074ZM122 3.34716V3.21267C121.965 1.67478 120.673 0.698242 119.097 0.698242H100.282L98.2825 23.5737H108.036L108.653 16.4924H111.495L118.132 16.4953C119.807 16.4953 120.921 15.6386 121.099 13.6768C121.17 12.9195 121.939 4.24476 121.994 3.47581C121.997 3.43195 122 3.38517 122 3.34132V3.34716Z" fill="#E9E8E9"/>
<path fill-rule="evenodd" clip-rule="evenodd" d="M62.06 18.8202H59.569L60.066 13.1422H62.5571L62.06 18.8202ZM60.4841 8.38235L60.6888 6.06381H72.9072L73.3779 0.695801H51.403L49.4002 23.5742H53.0636C53.0636 23.5742 67.6883 23.5742 68.8665 23.5742C70.0448 23.5742 71.4424 22.8462 71.6178 20.9311C71.7494 19.4926 72.3487 12.689 72.4598 11.4581C72.6031 9.80622 71.5564 8.38235 69.501 8.38235H60.4812H60.4841Z" fill="#E9E8E9"/>
</svg>
