<svg width="0" height="0" class="hidden">
  <symbol fill="none" xmlns="http://www.w3.org/2000/svg" viewBox="0 0 10 10" id="arrow-down">
    <path d="M9.5 5C9.02429 5 8.31243 5.45833 7.71457 5.92167C6.94486 6.51833 6.27243 7.23042 5.759 8.0475C5.37457 8.65958 5.00557 9.40292 5.00557 10M0.5 5C0.975714 5 1.68757 5.45833 2.28543 5.92167C3.05514 6.51833 3.72757 7.23042 4.241 8.0475C4.62543 8.65958 4.99443 9.40292 4.99443 10M5 10L5 -1.96701e-07" stroke="black" stroke-width="1.4"></path>
  </symbol>
  <symbol fill="none" xmlns="http://www.w3.org/2000/svg" viewBox="0 0 10 10" id="arrow-right">
    <path d="M5 0.5C5 0.975714 5.45833 1.68757 5.92167 2.28543C6.51833 3.05514 7.23042 3.72757 8.0475 4.241C8.65958 4.62543 9.40292 4.99443 10 4.99443M5 9.5C5 9.02429 5.45833 8.31243 5.92167 7.71457C6.51833 6.94486 7.23042 6.27243 8.0475 5.759C8.65958 5.37457 9.40292 5.00557 10 5.00557M10 5H0" stroke="black" stroke-width="1.4"></path>
  </symbol>
  <symbol fill="none" xmlns="http://www.w3.org/2000/svg" viewBox="0 0 20 18" id="arrow-right--thin">
    <path d="M10 0.75C10 1.62214 10.8403 2.92721 11.6898 4.02329C12.7837 5.43443 14.0891 6.66721 15.5871 7.6085C16.7093 8.31329 18.0721 8.98979 19.1667 8.98979M10 17.25C10 16.3779 10.8403 15.0728 11.6898 13.9767C12.7837 12.5656 14.0891 11.3328 15.5871 10.3915C16.7093 9.68671 18.0721 9.01021 19.1667 9.01021M19.1667 9H0.833374" stroke="#FFCB25" stroke-width="1.4"></path>
  </symbol>
  <symbol fill="none"  xmlns="http://www.w3.org/2000/svg" viewBox="0 0 18 14" id="email">
    <path d="M1 3.26087L8.91304 8.13043H9.08696L17 3.26087M17 1.52174V13H16.6522C14.5652 12.6522 11.087 12.4783 9 12.4783C6.91304 12.4783 3.43478 12.6522 1.34783 13H1V1.52174C3.08696 1.17391 6.91304 1 9 1C11.087 1 14.913 1.17391 17 1.52174Z" stroke-width="1.4"></path>
  </symbol>
  <symbol fill="none"  xmlns="http://www.w3.org/2000/svg" viewBox="0 0 18 18" id="search">
    <path d="M13.4696 13.4696L17 17M8.30435 15.6087C4.27026 15.6087 1 12.3384 1 8.30435C1 4.27026 4.27026 1 8.30435 1C12.3384 1 15.6087 4.27026 15.6087 8.30435C15.6087 12.3384 12.3384 15.6087 8.30435 15.6087Z" stroke-width="1.4"></path>
  </symbol>
</svg>