<svg width="148" height="39" viewBox="0 0 148 39" fill="none" xmlns="http://www.w3.org/2000/svg">
<path fill-rule="evenodd" clip-rule="evenodd" d="M21.2157 0.228027C25.7421 0.228027 30.2197 0.332014 33.8592 1.04769C39.4256 2.14873 41.7378 5.70263 41.6827 9.76423C41.6338 13.3487 39.554 17.2391 37.6823 20.8235C35.0153 25.9311 31.7183 31.0204 29.2838 34.2745C26.8126 37.5715 24.6962 38.6481 21.2707 38.7521H21.1606C17.729 38.6481 15.6187 37.5715 13.1475 34.2745C10.713 31.0204 7.41598 25.9311 4.74903 20.8235C2.87115 17.2391 0.79141 13.3548 0.742475 9.77035C0.687423 5.70263 2.9996 2.14873 8.56596 1.04769C12.2055 0.332014 16.6892 0.228027 21.2157 0.228027ZM21.2036 36.0301H21.2281C24.103 35.9322 25.3753 34.9535 27.1064 32.6414C30.122 28.6165 32.9419 24.0166 35.2663 19.5635C36.6915 16.8415 38.9181 12.841 38.9609 9.73366C39.0098 6.17364 36.6732 4.38752 33.3334 3.72689C29.492 2.9684 25.1306 2.95617 21.2158 2.95617C17.301 2.95617 12.9397 2.9684 9.09831 3.72689C5.75849 4.38752 3.42185 6.17364 3.47078 9.73366C3.5136 12.8472 5.74014 16.8415 7.16537 19.5635C9.48979 24.0166 12.3097 28.6165 15.3253 32.6414C17.0564 34.9474 18.3287 35.9322 21.2036 36.0301ZM17.2582 5.69653C15.7473 10.9632 14.4506 16.4316 13.2578 21.6922C13.0926 22.4139 12.7195 22.6525 12.2363 22.6219C11.4166 21.215 10.6214 19.7653 9.80175 18.1933C8.65178 15.9973 6.84118 12.2355 6.80448 9.75201C6.79225 8.99964 7.22654 8.30231 7.65473 7.78238C9.3124 5.77605 12.7256 5.95955 15.0806 5.81275C15.7902 5.76993 16.5181 5.72711 17.2582 5.69653ZM16.1205 28.6287C16.5854 26.0902 17.0441 23.8086 17.6191 21.2884C17.668 21.0621 17.9617 20.8297 18.1941 20.8297H21.2097H24.2253C24.4578 20.8297 24.7514 21.0621 24.8003 21.2884C25.3753 23.8147 25.8341 26.1024 26.299 28.647C25.9625 29.118 25.6139 29.589 25.2591 30.0662C24.0908 31.6198 23.1427 32.5924 21.222 32.6903C19.3013 32.5924 18.347 31.6198 17.1848 30.0662C16.8239 29.5829 16.4691 29.1058 16.1327 28.6287H16.1205ZM30.1893 22.6158C29.6938 22.6525 29.3146 22.4139 29.1494 21.686C27.9566 16.4255 26.6537 10.957 25.149 5.69041C25.8891 5.72099 26.6232 5.76381 27.3388 5.80663C29.6938 5.95955 33.107 5.76993 34.7647 7.77626C35.1929 8.2962 35.6272 8.9874 35.615 9.7459C35.5844 12.2293 33.7677 15.9912 32.6177 18.1872C31.798 19.7592 31.0028 21.2089 30.1832 22.6158H30.1893ZM20.8305 9.03022C21.0384 8.49805 21.3688 8.49805 21.5767 9.03022C21.9193 9.90494 22.1395 10.798 22.3842 11.6972C22.7389 13.0123 23.0876 14.3336 23.424 15.6487C23.6626 16.5784 23.6748 17.1718 22.3658 17.1718H20.0292C18.7201 17.1718 18.7324 16.5784 18.9709 15.6487C19.3013 14.3703 19.6377 13.0796 19.9863 11.8012C20.2371 10.8653 20.4696 9.94164 20.8244 9.03022H20.8305Z" fill="#E9E8E9"/>
<path fill-rule="evenodd" clip-rule="evenodd" d="M90.275 20.897H89.6755C89.6755 18.3585 89.6694 15.8139 89.6755 13.2754H85.0328V20.4811H85.0573L85.0328 27.3809C85.0328 27.5522 85.0328 27.9008 85.0512 28.1272V28.2801L85.0573 28.3046C85.0573 28.3596 85.0695 28.4208 85.0757 28.4942V28.5125L85.0879 28.5492C85.3937 30.9593 86.7823 32.6108 88.8681 33.4305C89.2351 33.5773 89.6511 33.6935 90.0976 33.773C90.5074 33.8464 90.9356 33.8893 91.3821 33.8893H96.3246C99.1567 33.8893 101.879 32.1337 102.735 29.3811C103.12 28.1516 103.139 26.9099 102.802 25.6743C102.007 22.7504 99.3035 20.9031 96.3185 20.9031H91.6635C88.9721 20.897 89.7122 20.9031 90.275 20.9031V20.897ZM89.6755 25.0871H90.4157C92.3364 25.0932 88.4338 25.0993 91.6452 25.0993H95.9515C97.0464 25.0993 98.0679 25.7966 98.1964 27.0506C98.2147 27.2402 98.2086 27.5032 98.178 27.6929C98.0006 28.8612 97.0097 29.5463 95.9515 29.5463L91.2109 29.534C91.0518 29.534 90.8928 29.5157 90.746 29.4912C90.3484 29.4117 90.0242 29.1793 89.8652 28.8857C89.6327 28.4575 89.6633 27.8764 89.6633 27.3197V25.0932L89.6755 25.0871Z" fill="#E9E8E9"/>
<path fill-rule="evenodd" clip-rule="evenodd" d="M57.9045 25.0871H57.1643C55.2436 25.0932 59.1462 25.0993 55.9348 25.0993H51.6286C50.5336 25.0993 49.5121 25.7966 49.3837 27.0506C49.3653 27.2402 49.3714 27.5032 49.402 27.6929C49.5794 28.8612 50.5703 29.5463 51.6286 29.5463L56.3691 29.534C56.5282 29.534 56.6872 29.5157 56.834 29.4912C57.2316 29.4117 57.5558 29.1793 57.7149 28.8857C57.9473 28.4575 57.9167 27.8764 57.9167 27.3197V25.0932H57.9106L57.9045 25.0871ZM57.2928 20.897H57.8922C57.8922 20.4566 57.8739 20.1813 57.8922 19.747C57.9534 18.2668 56.2835 17.337 54.8583 17.337L46.8329 17.3248V13.2876L53.8612 13.2754C58.2409 13.2754 62.4983 14.7129 62.5166 19.7899L62.5411 27.387C62.5411 27.5583 62.5411 27.907 62.5227 28.1333V28.2862L62.5166 28.3107C62.5166 28.3657 62.5044 28.4269 62.4983 28.5003V28.5186L62.486 28.5553C62.1802 30.9654 60.7916 32.6169 58.7058 33.4366C58.3388 33.5834 57.9228 33.6996 57.4763 33.7792C57.0665 33.8526 56.6383 33.8954 56.1918 33.8954H51.2493C48.4172 33.8954 45.6952 32.1398 44.8388 29.3872C44.4535 28.1577 44.4351 26.916 44.7716 25.6804C45.5667 22.7565 48.2704 20.9093 51.2554 20.9093H55.9104C58.6018 20.9031 57.8617 20.9093 57.2989 20.9093L57.2928 20.897Z" fill="#E9E8E9"/>
<path fill-rule="evenodd" clip-rule="evenodd" d="M99.3585 13.269H117.385V17.2083H110.754V33.8034H105.989V17.2083H99.3585V13.269Z" fill="#E9E8E9"/>
<path fill-rule="evenodd" clip-rule="evenodd" d="M120.731 13.3552H124.15V14.1076H122.89V17.2517H121.985V14.1076H120.725V13.3552H120.731ZM143.48 17.2517H144.373V15.539L144.324 14.6153L145.229 16.6522H146.287L147.138 14.6275L147.107 15.5328V17.2456H148V13.3491H146.838L145.773 15.857L144.685 13.3491H143.486V17.2456L143.48 17.2517ZM136.904 17.2517V15.6429C137.191 15.6429 137.681 15.6429 138.023 16.3709C138.182 16.7501 138.329 17.0682 138.476 17.2578H139.498C139.308 16.9458 139.118 16.4565 139.002 16.169C138.757 15.5879 138.439 15.1597 137.877 15.0618L139.473 13.3552H138.293L137.057 14.9579H136.904V13.3552H135.95V17.2517H136.904ZM127.912 17.2517C128.628 17.215 128.928 16.952 129.148 16.5849C129.399 16.1629 129.527 15.3677 129.631 14.0831H130.524V17.1783H131.46V13.3552H128.805C128.762 14.6704 128.652 15.6429 128.499 15.9794C128.365 16.2791 128.23 16.4443 127.906 16.481V17.2517H127.912ZM141.993 15.5879V16.01C141.993 16.1139 141.999 16.2241 141.957 16.3036C141.926 16.3586 141.865 16.4014 141.791 16.4198C141.767 16.4198 141.736 16.4259 141.706 16.4259H141.247H140.788C140.758 16.4259 140.727 16.4259 140.703 16.4198C140.629 16.4014 140.568 16.3586 140.537 16.3036C140.495 16.2241 140.501 16.1139 140.501 16.01V14.597C140.501 14.493 140.495 14.3829 140.537 14.3034C140.568 14.2483 140.629 14.2055 140.703 14.1871C140.727 14.1871 140.758 14.181 140.788 14.181H141.247H141.706C141.736 14.181 141.767 14.181 141.791 14.1871C141.865 14.2055 141.926 14.2483 141.957 14.3034C141.999 14.3829 141.993 14.493 141.993 14.597V15.5879ZM139.62 15.3065V16.0283C139.62 16.0283 139.62 16.1262 139.62 16.169V16.1996C139.62 16.1996 139.62 16.2241 139.62 16.2424V16.2546C139.675 16.7134 139.938 17.0192 140.336 17.1783C140.403 17.2028 140.482 17.2272 140.568 17.2456C140.648 17.2578 140.727 17.2639 140.813 17.27H141.663C141.749 17.27 141.828 17.2639 141.908 17.2456C141.993 17.2333 142.067 17.2089 142.14 17.1783C142.532 17.0254 142.795 16.7134 142.856 16.2546V16.2424C142.856 16.2424 142.856 16.2179 142.856 16.2057V16.1812C142.856 16.1323 142.856 16.065 142.856 16.0344V15.3126V14.5908C142.856 14.5603 142.856 14.493 142.856 14.4502V14.4196C142.856 14.4196 142.856 14.3951 142.856 14.3768V14.3645C142.801 13.9058 142.538 13.5999 142.14 13.4409C142.073 13.4103 141.993 13.3919 141.908 13.3736C141.828 13.3614 141.749 13.3491 141.663 13.3491H140.813C140.727 13.3491 140.648 13.3552 140.568 13.3736C140.482 13.3858 140.403 13.4103 140.336 13.4409C139.944 13.5938 139.681 13.9058 139.62 14.3645V14.3768C139.62 14.3768 139.62 14.4012 139.62 14.4135V14.4379C139.62 14.4869 139.62 14.5541 139.62 14.5847V15.3065ZM132.922 15.0251H133.063C133.423 15.0251 132.689 15.0251 133.295 15.0251H134.109C134.317 15.0251 134.512 14.8906 134.531 14.6581C134.531 14.6214 134.531 14.5725 134.531 14.5358C134.494 14.3156 134.31 14.1871 134.109 14.1871H133.216C133.216 14.1871 133.154 14.1871 133.13 14.1994C133.056 14.2177 132.995 14.2605 132.965 14.3156C132.922 14.3951 132.928 14.5052 132.928 14.6092V15.0313L132.922 15.0251ZM133.038 15.8203H132.928C132.928 15.8999 132.928 15.9549 132.928 16.0344C132.916 16.3158 133.234 16.4871 133.503 16.4871H134.922V17.2578H133.693C132.861 17.2578 132.059 16.9887 132.053 16.0283V14.5908C132.053 14.5908 132.053 14.493 132.053 14.4502V14.4196C132.053 14.4196 132.053 14.3951 132.053 14.3768V14.3645C132.108 13.9058 132.371 13.5999 132.769 13.4409C132.836 13.4103 132.916 13.3919 133.001 13.3736C133.081 13.3614 133.16 13.3491 133.246 13.3491H134.182C134.714 13.3491 135.228 13.6794 135.393 14.1994C135.467 14.4318 135.473 14.6704 135.405 14.8967C135.259 15.4533 134.745 15.802 134.182 15.802H133.301C132.787 15.802 132.928 15.802 133.038 15.802V15.8203ZM125.325 15.0251H125.465C125.826 15.0251 125.092 15.0251 125.698 15.0251H126.511C126.719 15.0251 126.915 14.8906 126.933 14.6581C126.933 14.6214 126.933 14.5725 126.933 14.5358C126.897 14.3156 126.713 14.1871 126.511 14.1871H125.618C125.618 14.1871 125.557 14.1871 125.533 14.1994C125.459 14.2177 125.398 14.2605 125.368 14.3156C125.325 14.3951 125.331 14.5052 125.331 14.6092V15.0313L125.325 15.0251ZM125.441 15.8203H125.331C125.331 15.8999 125.331 15.9549 125.331 16.0344C125.319 16.3158 125.637 16.4871 125.906 16.4871H127.325V17.2578H126.095C125.264 17.2578 124.462 16.9887 124.456 16.0283V14.5908C124.456 14.5908 124.456 14.493 124.456 14.4502V14.4196C124.456 14.4196 124.456 14.3951 124.456 14.3768V14.3645C124.511 13.9058 124.774 13.5999 125.172 13.4409C125.239 13.4103 125.319 13.3919 125.404 13.3736C125.484 13.3614 125.563 13.3491 125.649 13.3491H126.585C127.117 13.3491 127.631 13.6794 127.796 14.1994C127.869 14.4318 127.875 14.6704 127.808 14.8967C127.661 15.4533 127.148 15.802 126.585 15.802H125.704C125.19 15.802 125.331 15.802 125.441 15.802V15.8203Z" fill="#E9E8E9"/>
<path fill-rule="evenodd" clip-rule="evenodd" d="M63.4097 33.8462C67.1899 33.6444 68.7681 32.2803 69.9425 30.329C71.2821 28.1025 71.9549 23.9063 72.5116 17.1104H77.2216L77.2522 33.7912H82.2007L82.1701 13.269H68.1686C67.9484 20.2178 67.3551 25.356 66.5599 27.1176C65.8442 28.7019 65.1346 29.5644 63.4341 29.7724L63.4097 33.8523V33.8462Z" fill="#E9E8E9"/>
</svg>
