<svg width="175" height="73" viewBox="0 0 175 73" fill="none" xmlns="http://www.w3.org/2000/svg">
<path d="M1.75017 71.1281V1.75017H75.4043V71.1281H1.75017Z" stroke="#FFCB25" stroke-width="3.50033"/>
<path d="M65.2482 35.567L64.126 31.9507H55.411L54.2888 35.567H47.0351L55.6741 10.4902H63.8279L72.4668 35.567H65.2482ZM57.1353 26.4296H62.4075L59.7539 17.905L57.1353 26.4296Z" fill="white"/>
<path d="M75.272 31.9727C72.7995 29.5711 71.5837 26.5842 71.5837 23.0176C71.5837 19.4509 72.7995 16.464 75.272 14.0955C77.7444 11.6938 80.8949 10.4902 84.6532 10.4902C86.9094 10.4902 89.0195 11.0037 90.9542 12.0361C92.8889 13.0631 94.3911 14.4378 95.5016 16.188L89.9488 19.2411C88.9786 17.5572 86.9737 16.4972 84.6474 16.4972C82.6425 16.4972 81.0293 17.1155 79.7785 18.3136C78.5627 19.5117 77.9548 21.0576 77.9548 23.012C77.9548 24.9665 78.5627 26.5455 79.7785 27.7491C81.0293 28.9472 82.6425 29.5324 84.6474 29.5324C86.9737 29.5324 88.9786 28.5055 89.9488 26.7553L95.5016 29.8416C93.3156 33.3751 89.2357 35.5338 84.6532 35.5338C80.8949 35.5338 77.7386 34.3358 75.272 31.9672V31.9727Z" fill="white"/>
<path d="M119.262 35.567H111.786L104.27 24.3537V35.567H97.5771V10.4902H104.27V21.0244L111.781 10.4902H119.256L110.588 22.6697L119.256 35.567H119.262Z" fill="white"/>
<path d="M46.7074 28.2239C46.7074 30.4434 45.9242 32.2378 44.3168 33.5628C42.7094 34.8879 40.576 35.567 37.9224 35.567H26.8869V10.4902H37.2093C42.4464 10.4902 45.8482 13.2121 45.8482 17.6179C45.8482 19.7325 45.0241 21.3778 43.4167 22.598C45.6203 23.8512 46.7074 25.7174 46.7074 28.2239ZM33.5795 16.2211V20.1632H37.0164C38.2146 20.1632 39.1498 19.4454 39.1498 18.1921C39.1498 17.0106 38.2497 16.2211 37.0164 16.2211H33.5795ZM37.7295 29.8361C39.0738 29.8361 40.009 28.9748 40.009 27.7215C40.009 26.4682 39.0738 25.6069 37.7295 25.6069H33.5795V29.8361H37.7295Z" fill="white"/>
<path d="M52.7804 48.5694V51.0098C52.7804 54.5488 51.6348 57.4032 49.3026 59.6005C47.0055 61.7648 44.0304 62.8635 40.3363 62.8635C36.426 62.8635 33.1995 61.6599 30.6511 59.2582C28.1377 56.8511 26.8869 53.8973 26.8869 50.3583C26.8869 46.8193 28.1436 43.8655 30.6511 41.4252C33.1586 38.9848 36.2799 37.7812 39.9739 37.7812C42.3061 37.7812 44.4571 38.2947 46.3918 39.294C48.3616 40.2878 49.8696 41.6294 50.9801 43.3134L45.5267 46.3003C44.5214 44.7875 42.4756 43.7937 40.0382 43.7937C38.0685 43.7937 36.4143 44.4121 35.1576 45.6488C33.9009 46.8855 33.258 48.4645 33.258 50.3914C33.258 52.3183 33.8659 53.8255 35.1226 55.1009C36.3792 56.3707 38.1678 57.0222 40.4298 57.0222C43.3348 57.0222 45.2754 55.9566 46.2047 53.8586H40.1084V48.5694H52.7687H52.7804Z" fill="white"/>
<path d="M68.7959 62.88L64.2367 54.7861H61.8461V62.88H55.1536V37.8032H65.622C68.2757 37.8032 70.5202 38.6259 72.3146 40.2767C74.1441 41.8888 75.0442 43.9647 75.0442 46.4768C75.0442 49.4858 73.3258 52.1359 70.5961 53.6045L75.9794 62.8855H68.8017L68.7959 62.88ZM61.8403 43.7163V49.3423H65.5402C67.1826 49.3809 68.3458 48.2325 68.3458 46.5486C68.3458 44.8647 67.1885 43.7163 65.5402 43.7163H61.8403Z" fill="white"/>
<path d="M90.2884 62.8753C86.5943 62.8753 83.4789 61.6717 80.9305 59.27C78.3821 56.8297 77.1312 53.8759 77.1312 50.3424C77.1312 46.8089 78.3879 43.8496 80.9305 41.448C83.4731 39.0076 86.5943 37.8096 90.2884 37.8096C93.9825 37.8096 97.0628 39.0132 99.6112 41.448C102.16 43.8496 103.446 46.8034 103.446 50.3424C103.446 53.8814 102.154 56.8352 99.6112 59.27C97.0686 61.6717 93.9825 62.8753 90.2884 62.8753ZM90.2884 56.8628C92.2231 56.8628 93.8363 56.2444 95.1281 55.0409C96.4198 53.8041 97.0628 52.2251 97.0628 50.3369C97.0628 48.4487 96.4198 46.8697 95.1281 45.6661C93.8363 44.4293 92.2231 43.811 90.2884 43.811C88.3537 43.811 86.7405 44.4293 85.4487 45.6661C84.157 46.8697 83.514 48.4487 83.514 50.3369C83.514 52.2251 84.157 53.8041 85.4487 55.0409C86.7405 56.2444 88.3537 56.8628 90.2884 56.8628Z" fill="white"/>
<path d="M105.532 37.8032H112.084V53.6929C112.084 55.7633 113.294 56.7792 115.673 56.7792C118.052 56.7792 119.262 55.7633 119.262 53.6929V37.8032H125.814V54.2892C125.814 56.8841 124.862 58.9545 122.962 60.5335C121.097 62.1125 118.643 62.8855 115.679 62.8855C112.716 62.8855 110.261 62.1125 108.355 60.5335C106.485 58.9545 105.538 56.8841 105.538 54.2892V37.8032H105.532Z" fill="white"/>
<path d="M142.612 37.8032H149.27V62.88H144.109L134.874 50.2698V62.88H128.181V37.8032H133.377L142.612 50.4134V37.8032Z" fill="white"/>
<path d="M162.287 37.8032C165.917 37.8032 168.903 39.0234 171.335 41.4195C173.767 43.8212 175 46.7915 175 50.3416C175 53.8916 173.767 56.8951 171.335 59.2968C168.903 61.6985 165.911 62.88 162.287 62.88H151.631V37.8032H162.287ZM162.287 56.6798C164.122 56.6798 165.578 56.1056 166.735 54.9627C167.892 53.7812 168.453 52.2408 168.453 50.3416C168.453 48.4423 167.892 46.902 166.735 45.7536C165.578 44.5721 164.116 43.9979 162.287 43.9979H158.511V56.6798H162.287Z" fill="white"/>
</svg>
