<svg width="130" height="46" viewBox="0 0 130 46" fill="none" xmlns="http://www.w3.org/2000/svg">
<path d="M48.3726 31.848C45.335 31.848 42.9266 33.4918 42.9266 36.857C42.9266 40.2223 45.335 41.8815 48.3726 41.8815C51.4101 41.8815 53.7942 40.2367 53.7942 36.857C53.7942 33.4764 51.3858 31.8471 48.3662 31.8471L48.3726 31.848ZM48.3662 39.2077C46.9147 39.2077 45.9768 38.4801 45.9768 36.857C45.9768 35.234 46.9156 34.5254 48.3662 34.5254C49.8178 34.5254 50.7349 35.2493 50.7376 36.857C50.7412 38.4638 49.7997 39.2077 48.3662 39.2077ZM70.7324 39.2158V32.0393H67.6696V41.7036H72.7427L75.9365 34.4324V41.7036H78.9993V32.0393H73.8801L70.7324 39.2158ZM64.6491 36.7568C64.9493 36.5305 65.1897 36.2344 65.3495 35.8941C65.5093 35.5539 65.5837 35.1798 65.5663 34.8043C65.5663 33.2002 64.4262 32.0538 62.2804 32.0538H55.2701V41.6928H62.6596C64.799 41.6928 65.9454 40.5346 65.9454 38.9423C65.9606 38.4923 65.8466 38.0475 65.6169 37.6603C65.3872 37.2732 65.0513 36.9591 64.6491 36.7568ZM58.3167 34.3584H61.7424C62.266 34.3584 62.5955 34.5687 62.5955 35.0552C62.5955 35.5409 62.2651 35.7124 61.7424 35.7124H58.3167V34.3584ZM62.0485 39.3097H58.3167V37.9195H62.0485C62.5494 37.9195 62.8979 38.1298 62.8979 38.5938C62.8979 39.0587 62.5494 39.3097 62.0485 39.3097ZM100.067 32.0393L97.5543 35.4263H96.2616V32.0393H93.1988V41.7036H96.2616V38.0838H98.0002L100.067 41.7027H103.376L100.268 36.2351L103.376 32.0384L100.067 32.0393ZM109.112 31.848C106.055 31.848 103.656 33.4954 103.656 36.8634C103.656 40.2304 106.055 41.8968 109.112 41.8968C112.167 41.8968 114.545 40.2494 114.545 36.8634C114.545 33.4764 112.134 31.848 109.112 31.848ZM109.112 39.2167C107.656 39.2167 106.718 38.4891 106.718 36.8634C106.718 35.2376 107.656 34.5281 109.112 34.5281C110.566 34.5281 111.483 35.2556 111.483 36.8634C111.483 38.4702 110.548 39.2167 109.112 39.2167ZM124.086 31.913V30.2285H121.409V31.913C117.962 32.2578 115.761 33.9206 115.761 36.848C115.761 39.8341 117.962 41.4996 121.409 41.8453V43.5262H124.086V41.83C127.512 41.4843 130 39.8188 130 36.8336C130 33.9052 127.512 32.2488 124.086 31.8976V31.913ZM121.409 39.1309C119.781 38.9206 118.824 38.2698 118.824 36.8336C118.824 35.3965 119.781 34.807 121.409 34.5958V39.1309ZM124.086 39.1309V34.6048C125.694 34.816 126.65 35.4452 126.65 36.8426C126.65 38.2391 125.694 38.9296 124.086 39.1409M87.9279 35.2123C87.9279 36.7767 83.9118 36.765 83.9118 35.2123V32.0393H80.8553V35.9661C80.8553 40.0806 87.686 39.1454 87.9342 38.4331V41.6919H90.9899V32.0384H87.9342L87.9279 35.2123ZM0.00598145 32.0736H8.16277V34.7411H3.0571V41.6973H0.00598145V32.0736ZM16.1137 31.8877C15.874 31.8596 15.6329 31.8454 15.3916 31.8452C14.8343 31.8371 14.2818 31.9498 13.7723 32.1756C13.2627 32.4014 12.8081 32.735 12.4398 33.1533V32.0375H9.38502V45.3162H12.4407V40.6475C12.8163 41.0509 13.2743 41.3688 13.7836 41.5796C14.2929 41.7905 14.8416 41.8895 15.3925 41.8697C15.5586 41.8697 15.7202 41.8697 15.8799 41.8544C18.3885 41.6684 20.258 40.021 20.258 36.8643C20.258 33.7897 18.4526 32.1513 16.1146 31.8796V31.8886L16.1137 31.8877ZM14.9854 39.2131C14.7649 39.2139 14.5447 39.1988 14.3264 39.1679H14.274C14.2019 39.159 14.1305 39.1454 14.0601 39.1273L13.9464 39.1029L13.7658 39.0488C12.8992 38.7419 12.4334 38.0676 12.4334 36.9094C12.4228 36.515 12.4935 36.1226 12.6411 35.7566C12.66 35.7142 12.6817 35.6682 12.7033 35.6258C12.7241 35.5824 12.7331 35.5698 12.7485 35.5427C13.1339 34.8585 13.8642 34.5407 14.812 34.5407C14.9971 34.5389 15.1821 34.5524 15.3645 34.5804C16.7646 34.6842 17.54 35.4019 17.54 36.9094C17.54 38.5505 16.6238 39.2383 14.9854 39.2383M32.226 32.0736L26.7259 43.3817C26.4082 44.037 25.9123 44.5894 25.295 44.9758C24.6778 45.3622 23.9642 45.5668 23.236 45.5663H21.4785V42.9141L22.9454 42.9385C23.951 42.9566 24.6876 41.9636 24.6876 40.958L20.3727 32.0944H23.8047L26.2926 37.8157L28.7678 32.0736H32.226ZM35.0036 37.9998C35.0036 39.2411 35.7095 39.4153 37.0419 39.4153C38.0538 39.4153 38.9674 39.2474 38.9674 38.6209C38.9674 37.9484 38.1667 37.8103 37.3299 37.8103H36.1654V35.7142H37.3299C38.1667 35.7142 38.7751 35.5337 38.7751 34.9253C38.7751 34.3782 38.1089 34.1616 37.0816 34.1616C35.7646 34.1616 35.1932 34.3475 35.1932 35.1789H32.3361C32.3361 33.0395 34.0504 31.8814 37.0816 31.8814C39.9396 31.8814 41.6357 32.97 41.6357 34.5127C41.6357 35.9498 40.8775 36.7135 39.6155 36.7135C40.9018 36.7135 42.0176 37.386 42.0176 39.1246C42.0176 40.8641 39.8998 41.8751 37.0419 41.8751C34.0106 41.8751 32.152 40.6962 32.152 37.9881L35.0036 37.9998Z" fill="#E9E8E9"/>
<path d="M45.3593 14.9378V20.6465C45.3625 20.8798 45.4191 21.1092 45.5248 21.3172C45.6305 21.5251 45.7824 21.7061 45.969 21.8463C46.1555 21.9864 46.3716 22.082 46.6008 22.1256C46.8299 22.1693 47.0661 22.1598 47.291 22.098L71.2703 15.1391C72.0134 14.9245 72.7978 14.8959 73.5545 15.0558C74.3112 15.2158 75.0169 15.5593 75.6096 16.0563L82.4466 21.7866C82.6744 21.9783 82.9523 22.1009 83.2474 22.14C83.5426 22.179 83.8428 22.1329 84.1126 22.007C84.3824 21.8811 84.6106 21.6807 84.7703 21.4294C84.9299 21.1781 85.0145 20.8864 85.0139 20.5887V14.9441C85.0149 14.2671 84.791 13.6089 84.3775 13.0728L76.0293 2.22963C75.3713 1.37483 74.4342 0.777923 73.3814 0.542874C72.3285 0.307825 71.2266 0.449521 70.2674 0.943287L46.3983 13.2326C46.0854 13.3943 45.8231 13.6389 45.64 13.9396C45.4569 14.2404 45.3592 14.5857 45.3593 14.9378Z" fill="#E9E8E9"/>
</svg>
