<svg width="126" height="72" viewBox="0 0 126 72" fill="none" xmlns="http://www.w3.org/2000/svg">
<path fill-rule="evenodd" clip-rule="evenodd" d="M63.8274 0.280762C66.3828 3.70894 69.5152 6.66992 72.8702 9.30481C75.5145 11.3586 78.325 13.2012 81.2724 14.792C86.7731 17.7331 92.7108 19.791 98.7519 21.2898C96.2163 23.4774 93.665 25.6493 91.1273 27.8358C88.7872 26.7697 86.5421 25.5071 84.3389 24.185C81.2316 22.2984 78.232 20.2342 75.3535 18.0143C72.2421 15.6239 69.3417 12.9326 66.9043 9.85039C65.7348 8.3652 64.6708 6.78698 63.842 5.08439C62.3474 8.10495 60.1943 10.7451 57.8594 13.1521C54.8357 16.2395 51.3647 18.842 47.8194 21.294C44.409 23.6195 40.869 25.7726 37.1472 27.563C36.9465 27.6591 36.7437 27.748 36.5378 27.8305C34.0158 25.6388 31.4604 23.4837 28.9394 21.2909C33.5194 20.1527 38.0282 18.6915 42.3448 16.7768C45.9339 15.1954 49.3548 13.2409 52.5562 10.9771C56.0053 8.53869 59.215 5.74494 62.0087 2.57283C62.6442 1.83285 63.2786 1.08868 63.8263 0.280762H63.8274ZM51.5413 24.5288C51.5225 26.9369 51.5267 29.3471 51.5392 31.7552C59.7407 31.7405 67.9432 31.7541 76.1447 31.7489V24.5382C67.9443 24.5309 59.7428 24.5487 51.5413 24.5288ZM47.3512 37.8883C58.3517 37.8914 69.3511 37.8893 80.3516 37.8893C80.3547 40.2911 80.3453 42.6929 80.3557 45.0958C69.3542 45.1083 58.3517 45.0979 47.3502 45.101C47.3512 42.6971 47.3481 40.2922 47.3512 37.8883Z" fill="#E9E8E9"/>
<path fill-rule="evenodd" clip-rule="evenodd" d="M122.371 57.1487C123.58 57.1435 124.789 57.1476 126 57.1466C125.991 61.9826 126.011 66.8176 125.989 71.6536C124.281 71.6484 122.574 71.638 120.867 71.6589C120.831 68.8588 120.86 66.0578 120.852 63.2577C117.546 65.9606 114.247 68.6717 110.943 71.3777C110.715 71.547 110.521 71.7707 110.267 71.8982C109.064 71.9202 107.859 71.9128 106.656 71.8993C106.673 67.0862 106.658 62.2732 106.663 57.4601C108.375 57.4549 110.088 57.4696 111.801 57.4528C111.823 60.234 111.801 63.0153 111.812 65.7954C115.334 62.917 118.851 60.0313 122.37 57.1487H122.371ZM16.4486 71.6474C19.6008 66.8207 22.7269 61.9764 25.9001 57.1644C27.1574 57.1853 28.4148 57.1654 29.6732 57.1738C32.724 62.0014 35.7895 66.8207 38.8404 71.6484C36.9831 71.6463 35.1248 71.6536 33.2675 71.6442C32.6676 70.6994 32.0572 69.7608 31.4448 68.8243C28.9227 68.8296 26.4007 68.8243 23.8787 68.8264C23.2746 69.7692 22.6611 70.7057 22.057 71.6484C20.1872 71.6484 18.3173 71.6495 16.4486 71.6484V71.6474ZM27.7292 62.4979C27.0278 63.6518 26.3129 64.7983 25.6127 65.9522C27.0132 65.9543 28.4148 65.948 29.8153 65.9564C29.1276 64.7994 28.4461 63.6371 27.7292 62.4979ZM41.6749 57.4696C43.4026 57.4539 45.1313 57.4539 46.859 57.4685C46.8433 59.1962 46.8642 60.9239 46.8485 62.6515C49.3758 62.6714 51.9041 62.6557 54.4323 62.6589C54.4282 60.9291 54.4376 59.1993 54.4271 57.4685C56.1412 57.4434 57.8553 57.4748 59.5704 57.4528C59.5903 62.1843 59.5736 66.9169 59.5788 71.6484H54.4313C54.4313 69.6542 54.4282 67.6611 54.4344 65.6679C51.9062 65.6627 49.3789 65.6627 46.8517 65.6679C46.8569 67.6611 46.8517 69.6553 46.8538 71.6484H41.6802C41.677 66.9221 41.6875 62.1958 41.6749 57.4696ZM62.3819 57.4581C64.3051 57.4612 66.2292 57.4612 68.1524 57.4581C68.2861 57.433 68.4022 57.4978 68.4732 57.6117C69.8696 59.4188 71.2659 61.227 72.6633 63.0351C72.8327 63.2651 73.0114 63.4908 73.2058 63.703C74.5405 61.6137 75.9201 59.5536 77.2611 57.4685C79.1549 57.4487 81.0498 57.4654 82.9447 57.4601C79.5761 62.1875 76.2138 66.9179 72.8494 71.6474C70.9576 71.6463 69.0658 71.6536 67.1741 71.6442C68.2161 70.2667 69.2707 68.8996 70.3274 67.5346C67.6956 64.1629 64.9991 60.8402 62.3819 57.4581ZM97.0452 57.4737C99.2317 57.4434 101.423 57.4633 103.612 57.4654C102.989 57.9901 102.292 58.4196 101.64 58.9046C99.2296 60.6145 96.833 62.3411 94.4145 64.0364C97.6033 66.5877 100.84 69.0794 104.026 71.6317C101.929 71.6724 99.8306 71.6327 97.7319 71.6515C97.5155 71.639 97.2678 71.6975 97.1006 71.5282C94.8263 69.6678 92.5687 67.7865 90.2829 65.9386C90.2777 67.8408 90.2819 69.7441 90.2808 71.6463C88.5688 71.6547 86.8558 71.639 85.1438 71.6547C85.1208 66.9221 85.1375 62.1896 85.1354 57.4581C86.8526 57.4675 88.5699 57.4497 90.2871 57.4664C90.2725 59.1502 90.284 60.834 90.2819 62.5178C92.1015 61.1632 93.9128 59.7961 95.7293 58.4374C96.1725 58.1228 96.5822 57.758 97.0462 57.4737H97.0452ZM0.500244 57.4601V60.465C2.60627 60.4629 4.71335 60.4692 6.81937 60.4609C6.82669 64.1879 6.82669 67.915 6.81937 71.6421C8.53451 71.6589 10.2496 71.639 11.9648 71.6526C11.9763 67.9255 11.9742 64.1994 11.9658 60.4723C14.0666 60.4546 16.1674 60.4713 18.2682 60.464C18.2714 59.4648 18.2599 58.4656 18.2745 57.4675C12.3504 57.4507 6.42534 57.4643 0.500244 57.4601Z" fill="#E9E8E9"/>
</svg>
